<mxfile host="app.diagrams.net" modified="2024-03-14T10:49:43.869Z" agent="Mozilla/5.0 (Macintosh; Intel Mac OS X 10_15_7) AppleWebKit/537.36 (KHTML, like Gecko) Chrome/121.0.0.0 Safari/537.36" version="24.0.5" etag="5E3mtmClMFO8YgPAmHkO" type="github">
  <diagram name="Page-1" id="f9Dj2PWg4UNaXlQKma1Z">
    <mxGraphModel>
      <root>
        <mxCell id="0" />
        <mxCell id="1" parent="0" />
      </root>
    </mxGraphModel>
  </diagram>
</mxfile>
